<svg width="900" height="150" viewBox="0 0 900 150" xmlns="http://www.w3.org/2000/svg">
<defs>

<linearGradient id="fadeMask" x1="0" y1="0" x2="0" y2="1">
  <stop offset="0%" stop-color="white" stop-opacity="0"/>
  <stop offset="15%" stop-color="white" stop-opacity="1"/>
  <stop offset="85%" stop-color="white" stop-opacity="1"/>
  <stop offset="100%" stop-color="white" stop-opacity="0"/>
</linearGradient>
<mask id="fade">
  <rect x="0" y="0" width="900" height="150" fill="url(#fadeMask)"/>
</mask>

</defs>
<g mask="url(#fade)" font-family="Consolas, Menlo, monospace" font-size="14">

<g transform="translate(12.5,-61.2)">
  <g><text x="0" y="0" fill="#C9FFC9" opacity="0.71">V</text><text x="0" y="15" fill="#00FF41" opacity="0.61">ン</text><text x="0" y="30" fill="#00FF41" opacity="0.51">チ</text><text x="0" y="45" fill="#00FF41" opacity="0.41">ノ</text><text x="0" y="60" fill="#00FF41" opacity="0.31">モ</text><text x="0" y="75" fill="#00FF41" opacity="0.20">K</text><text x="0" y="90" fill="#00FF41" opacity="0.10">イ</text></g>
  <animateTransform attributeName="transform" type="translate"
    from="12.5 -90.0" to="12.5 210.0"
    dur="5.62s" begin="-5.50s" repeatCount="indefinite" additive="sum"/>
</g>

<g transform="translate(28.3,-2.8)">
  <g><text x="0" y="0" fill="#C9FFC9" opacity="0.75">ウ</text><text x="0" y="15" fill="#00FF41" opacity="0.66">T</text><text x="0" y="30" fill="#00FF41" opacity="0.56">8</text><text x="0" y="45" fill="#00FF41" opacity="0.47">J</text><text x="0" y="60" fill="#00FF41" opacity="0.37">ン</text><text x="0" y="75" fill="#00FF41" opacity="0.28">ク</text><text x="0" y="90" fill="#00FF41" opacity="0.19">ヒ</text><text x="0" y="105" fill="#00FF41" opacity="0.09">オ</text></g>
  <animateTransform attributeName="transform" type="translate"
    from="28.3 -90.0" to="28.3 210.0"
    dur="5.66s" begin="-5.36s" repeatCount="indefinite" additive="sum"/>
</g>

<g transform="translate(50.5,-39.7)">
  <g><text x="0" y="0" fill="#C9FFC9" opacity="0.78">B</text><text x="0" y="15" fill="#00FF41" opacity="0.70">1</text><text x="0" y="30" fill="#00FF41" opacity="0.63">ユ</text><text x="0" y="45" fill="#00FF41" opacity="0.55">ル</text><text x="0" y="60" fill="#00FF41" opacity="0.47">1</text><text x="0" y="75" fill="#00FF41" opacity="0.39">サ</text><text x="0" y="90" fill="#00FF41" opacity="0.31">O</text><text x="0" y="105" fill="#00FF41" opacity="0.23">ヌ</text><text x="0" y="120" fill="#00FF41" opacity="0.16">P</text><text x="0" y="135" fill="#00FF41" opacity="0.08">3</text></g>
  <animateTransform attributeName="transform" type="translate"
    from="50.5 -90.0" to="50.5 210.0"
    dur="3.10s" begin="-4.70s" repeatCount="indefinite" additive="sum"/>
</g>

<g transform="translate(71.7,-123.2)">
  <g><text x="0" y="0" fill="#C9FFC9" opacity="0.66">U</text><text x="0" y="15" fill="#00FF41" opacity="0.60">ハ</text><text x="0" y="30" fill="#00FF41" opacity="0.53">2</text><text x="0" y="45" fill="#00FF41" opacity="0.46">ソ</text><text x="0" y="60" fill="#00FF41" opacity="0.40">サ</text><text x="0" y="75" fill="#00FF41" opacity="0.33">ス</text><text x="0" y="90" fill="#00FF41" opacity="0.26">I</text><text x="0" y="105" fill="#00FF41" opacity="0.20">オ</text><text x="0" y="120" fill="#00FF41" opacity="0.13">0</text><text x="0" y="135" fill="#00FF41" opacity="0.07">ヤ</text></g>
  <animateTransform attributeName="transform" type="translate"
    from="71.7 -90.0" to="71.7 210.0"
    dur="4.75s" begin="-4.91s" repeatCount="indefinite" additive="sum"/>
</g>

<g transform="translate(92.6,-94.6)">
  <g><text x="0" y="0" fill="#C9FFC9" opacity="0.64">リ</text><text x="0" y="15" fill="#00FF41" opacity="0.55">M</text><text x="0" y="30" fill="#00FF41" opacity="0.46">Y</text><text x="0" y="45" fill="#00FF41" opacity="0.37">フ</text><text x="0" y="60" fill="#00FF41" opacity="0.28">メ</text><text x="0" y="75" fill="#00FF41" opacity="0.18">ト</text><text x="0" y="90" fill="#00FF41" opacity="0.09">セ</text></g>
  <animateTransform attributeName="transform" type="translate"
    from="92.6 -90.0" to="92.6 210.0"
    dur="5.37s" begin="-4.02s" repeatCount="indefinite" additive="sum"/>
</g>

<g transform="translate(110.7,-114.3)">
  <g><text x="0" y="0" fill="#C9FFC9" opacity="0.77">3</text><text x="0" y="15" fill="#00FF41" opacity="0.62">ス</text><text x="0" y="30" fill="#00FF41" opacity="0.46">D</text><text x="0" y="45" fill="#00FF41" opacity="0.31">ニ</text><text x="0" y="60" fill="#00FF41" opacity="0.15">L</text></g>
  <animateTransform attributeName="transform" type="translate"
    from="110.7 -90.0" to="110.7 210.0"
    dur="4.98s" begin="-1.03s" repeatCount="indefinite" additive="sum"/>
</g>

<g transform="translate(132.9,-125.6)">
  <g><text x="0" y="0" fill="#C9FFC9" opacity="0.61">イ</text><text x="0" y="15" fill="#00FF41" opacity="0.49">ヘ</text><text x="0" y="30" fill="#00FF41" opacity="0.37">ク</text><text x="0" y="45" fill="#00FF41" opacity="0.25">W</text><text x="0" y="60" fill="#00FF41" opacity="0.12">K</text></g>
  <animateTransform attributeName="transform" type="translate"
    from="132.9 -90.0" to="132.9 210.0"
    dur="4.71s" begin="-3.64s" repeatCount="indefinite" additive="sum"/>
</g>

<g transform="translate(151.5,-76.4)">
  <g><text x="0" y="0" fill="#C9FFC9" opacity="0.52">メ</text><text x="0" y="15" fill="#00FF41" opacity="0.44">N</text><text x="0" y="30" fill="#00FF41" opacity="0.37">Y</text><text x="0" y="45" fill="#00FF41" opacity="0.30">ハ</text><text x="0" y="60" fill="#00FF41" opacity="0.22">M</text><text x="0" y="75" fill="#00FF41" opacity="0.15">ヨ</text><text x="0" y="90" fill="#00FF41" opacity="0.07">フ</text></g>
  <animateTransform attributeName="transform" type="translate"
    from="151.5 -90.0" to="151.5 210.0"
    dur="2.56s" begin="-1.27s" repeatCount="indefinite" additive="sum"/>
</g>

<g transform="translate(167.5,-68.5)">
  <g><text x="0" y="0" fill="#C9FFC9" opacity="0.91">ム</text><text x="0" y="15" fill="#00FF41" opacity="0.81">ス</text><text x="0" y="30" fill="#00FF41" opacity="0.70">H</text><text x="0" y="45" fill="#00FF41" opacity="0.60">ニ</text><text x="0" y="60" fill="#00FF41" opacity="0.50">イ</text><text x="0" y="75" fill="#00FF41" opacity="0.40">K</text><text x="0" y="90" fill="#00FF41" opacity="0.30">ワ</text><text x="0" y="105" fill="#00FF41" opacity="0.20">H</text><text x="0" y="120" fill="#00FF41" opacity="0.10">ニ</text></g>
  <animateTransform attributeName="transform" type="translate"
    from="167.5 -90.0" to="167.5 210.0"
    dur="4.35s" begin="-4.98s" repeatCount="indefinite" additive="sum"/>
</g>

<g transform="translate(192.4,-5.9)">
  <g><text x="0" y="0" fill="#C9FFC9" opacity="0.95">マ</text><text x="0" y="15" fill="#00FF41" opacity="0.85">X</text><text x="0" y="30" fill="#00FF41" opacity="0.76">ヨ</text><text x="0" y="45" fill="#00FF41" opacity="0.66">I</text><text x="0" y="60" fill="#00FF41" opacity="0.57">G</text><text x="0" y="75" fill="#00FF41" opacity="0.47">ラ</text><text x="0" y="90" fill="#00FF41" opacity="0.38">Z</text><text x="0" y="105" fill="#00FF41" opacity="0.28">6</text><text x="0" y="120" fill="#00FF41" opacity="0.19">Y</text><text x="0" y="135" fill="#00FF41" opacity="0.09">キ</text></g>
  <animateTransform attributeName="transform" type="translate"
    from="192.4 -90.0" to="192.4 210.0"
    dur="5.34s" begin="-5.58s" repeatCount="indefinite" additive="sum"/>
</g>

<g transform="translate(212.0,-5.3)">
  <g><text x="0" y="0" fill="#C9FFC9" opacity="0.86">J</text><text x="0" y="15" fill="#00FF41" opacity="0.69">ミ</text><text x="0" y="30" fill="#00FF41" opacity="0.52">ニ</text><text x="0" y="45" fill="#00FF41" opacity="0.35">サ</text><text x="0" y="60" fill="#00FF41" opacity="0.17">ワ</text></g>
  <animateTransform attributeName="transform" type="translate"
    from="212.0 -90.0" to="212.0 210.0"
    dur="2.59s" begin="-5.16s" repeatCount="indefinite" additive="sum"/>
</g>

<g transform="translate(230.4,-6.4)">
  <g><text x="0" y="0" fill="#C9FFC9" opacity="0.90">モ</text><text x="0" y="15" fill="#00FF41" opacity="0.80">ア</text><text x="0" y="30" fill="#00FF41" opacity="0.70">ワ</text><text x="0" y="45" fill="#00FF41" opacity="0.60">C</text><text x="0" y="60" fill="#00FF41" opacity="0.50">エ</text><text x="0" y="75" fill="#00FF41" opacity="0.40">テ</text><text x="0" y="90" fill="#00FF41" opacity="0.30">F</text><text x="0" y="105" fill="#00FF41" opacity="0.20">ヒ</text><text x="0" y="120" fill="#00FF41" opacity="0.10">エ</text></g>
  <animateTransform attributeName="transform" type="translate"
    from="230.4 -90.0" to="230.4 210.0"
    dur="2.90s" begin="-0.68s" repeatCount="indefinite" additive="sum"/>
</g>

<g transform="translate(248.0,-87.0)">
  <g><text x="0" y="0" fill="#C9FFC9" opacity="0.64">4</text><text x="0" y="15" fill="#00FF41" opacity="0.56">X</text><text x="0" y="30" fill="#00FF41" opacity="0.48">Z</text><text x="0" y="45" fill="#00FF41" opacity="0.40">ヌ</text><text x="0" y="60" fill="#00FF41" opacity="0.32">V</text><text x="0" y="75" fill="#00FF41" opacity="0.24">W</text><text x="0" y="90" fill="#00FF41" opacity="0.16">ラ</text><text x="0" y="105" fill="#00FF41" opacity="0.08">メ</text></g>
  <animateTransform attributeName="transform" type="translate"
    from="248.0 -90.0" to="248.0 210.0"
    dur="5.11s" begin="-0.27s" repeatCount="indefinite" additive="sum"/>
</g>

<g transform="translate(272.4,-16.5)">
  <g><text x="0" y="0" fill="#C9FFC9" opacity="0.69">ウ</text><text x="0" y="15" fill="#00FF41" opacity="0.55">M</text><text x="0" y="30" fill="#00FF41" opacity="0.41">5</text><text x="0" y="45" fill="#00FF41" opacity="0.28">G</text><text x="0" y="60" fill="#00FF41" opacity="0.14">ヨ</text></g>
  <animateTransform attributeName="transform" type="translate"
    from="272.4 -90.0" to="272.4 210.0"
    dur="3.29s" begin="-5.63s" repeatCount="indefinite" additive="sum"/>
</g>

<g transform="translate(291.1,-6.0)">
  <g><text x="0" y="0" fill="#C9FFC9" opacity="0.67">D</text><text x="0" y="15" fill="#00FF41" opacity="0.59">カ</text><text x="0" y="30" fill="#00FF41" opacity="0.50">H</text><text x="0" y="45" fill="#00FF41" opacity="0.42">P</text><text x="0" y="60" fill="#00FF41" opacity="0.34">Y</text><text x="0" y="75" fill="#00FF41" opacity="0.25">ム</text><text x="0" y="90" fill="#00FF41" opacity="0.17">W</text><text x="0" y="105" fill="#00FF41" opacity="0.08">ヤ</text></g>
  <animateTransform attributeName="transform" type="translate"
    from="291.1 -90.0" to="291.1 210.0"
    dur="3.72s" begin="-4.19s" repeatCount="indefinite" additive="sum"/>
</g>

<g transform="translate(311.1,-22.2)">
  <g><text x="0" y="0" fill="#C9FFC9" opacity="0.75">ソ</text><text x="0" y="15" fill="#00FF41" opacity="0.66">7</text><text x="0" y="30" fill="#00FF41" opacity="0.56">N</text><text x="0" y="45" fill="#00FF41" opacity="0.47">タ</text><text x="0" y="60" fill="#00FF41" opacity="0.38">ヤ</text><text x="0" y="75" fill="#00FF41" opacity="0.28">0</text><text x="0" y="90" fill="#00FF41" opacity="0.19">K</text><text x="0" y="105" fill="#00FF41" opacity="0.09">ア</text></g>
  <animateTransform attributeName="transform" type="translate"
    from="311.1 -90.0" to="311.1 210.0"
    dur="3.26s" begin="-4.42s" repeatCount="indefinite" additive="sum"/>
</g>

<g transform="translate(332.1,-35.6)">
  <g><text x="0" y="0" fill="#C9FFC9" opacity="0.78">O</text><text x="0" y="15" fill="#00FF41" opacity="0.67">カ</text><text x="0" y="30" fill="#00FF41" opacity="0.56">G</text><text x="0" y="45" fill="#00FF41" opacity="0.45">サ</text><text x="0" y="60" fill="#00FF41" opacity="0.34">ヤ</text><text x="0" y="75" fill="#00FF41" opacity="0.22">ハ</text><text x="0" y="90" fill="#00FF41" opacity="0.11">A</text></g>
  <animateTransform attributeName="transform" type="translate"
    from="332.1 -90.0" to="332.1 210.0"
    dur="5.24s" begin="-5.33s" repeatCount="indefinite" additive="sum"/>
</g>

<g transform="translate(350.4,-39.3)">
  <g><text x="0" y="0" fill="#C9FFC9" opacity="0.70">A</text><text x="0" y="15" fill="#00FF41" opacity="0.62">ヨ</text><text x="0" y="30" fill="#00FF41" opacity="0.54">サ</text><text x="0" y="45" fill="#00FF41" opacity="0.47">7</text><text x="0" y="60" fill="#00FF41" opacity="0.39">5</text><text x="0" y="75" fill="#00FF41" opacity="0.31">ニ</text><text x="0" y="90" fill="#00FF41" opacity="0.23">カ</text><text x="0" y="105" fill="#00FF41" opacity="0.16">タ</text><text x="0" y="120" fill="#00FF41" opacity="0.08">ネ</text></g>
  <animateTransform attributeName="transform" type="translate"
    from="350.4 -90.0" to="350.4 210.0"
    dur="5.43s" begin="-5.46s" repeatCount="indefinite" additive="sum"/>
</g>

<g transform="translate(372.9,-40.2)">
  <g><text x="0" y="0" fill="#C9FFC9" opacity="0.73">ヨ</text><text x="0" y="15" fill="#00FF41" opacity="0.61">0</text><text x="0" y="30" fill="#00FF41" opacity="0.49">キ</text><text x="0" y="45" fill="#00FF41" opacity="0.37">カ</text><text x="0" y="60" fill="#00FF41" opacity="0.24">5</text><text x="0" y="75" fill="#00FF41" opacity="0.12">3</text></g>
  <animateTransform attributeName="transform" type="translate"
    from="372.9 -90.0" to="372.9 210.0"
    dur="4.64s" begin="-5.17s" repeatCount="indefinite" additive="sum"/>
</g>

<g transform="translate(387.6,-21.5)">
  <g><text x="0" y="0" fill="#C9FFC9" opacity="0.60">I</text><text x="0" y="15" fill="#00FF41" opacity="0.48">ル</text><text x="0" y="30" fill="#00FF41" opacity="0.36">7</text><text x="0" y="45" fill="#00FF41" opacity="0.24">ヘ</text><text x="0" y="60" fill="#00FF41" opacity="0.12">W</text></g>
  <animateTransform attributeName="transform" type="translate"
    from="387.6 -90.0" to="387.6 210.0"
    dur="2.97s" begin="-5.45s" repeatCount="indefinite" additive="sum"/>
</g>

<g transform="translate(410.5,-117.1)">
  <g><text x="0" y="0" fill="#C9FFC9" opacity="0.78">リ</text><text x="0" y="15" fill="#00FF41" opacity="0.68">M</text><text x="0" y="30" fill="#00FF41" opacity="0.59">9</text><text x="0" y="45" fill="#00FF41" opacity="0.49">チ</text><text x="0" y="60" fill="#00FF41" opacity="0.39">ン</text><text x="0" y="75" fill="#00FF41" opacity="0.29">C</text><text x="0" y="90" fill="#00FF41" opacity="0.20">リ</text><text x="0" y="105" fill="#00FF41" opacity="0.10">カ</text></g>
  <animateTransform attributeName="transform" type="translate"
    from="410.5 -90.0" to="410.5 210.0"
    dur="4.82s" begin="-2.81s" repeatCount="indefinite" additive="sum"/>
</g>

<g transform="translate(429.9,-69.7)">
  <g><text x="0" y="0" fill="#C9FFC9" opacity="0.61">G</text><text x="0" y="15" fill="#00FF41" opacity="0.52">I</text><text x="0" y="30" fill="#00FF41" opacity="0.43">ク</text><text x="0" y="45" fill="#00FF41" opacity="0.35">カ</text><text x="0" y="60" fill="#00FF41" opacity="0.26">ル</text><text x="0" y="75" fill="#00FF41" opacity="0.17">I</text><text x="0" y="90" fill="#00FF41" opacity="0.09">O</text></g>
  <animateTransform attributeName="transform" type="translate"
    from="429.9 -90.0" to="429.9 210.0"
    dur="5.03s" begin="-1.45s" repeatCount="indefinite" additive="sum"/>
</g>

<g transform="translate(451.9,-6.7)">
  <g><text x="0" y="0" fill="#C9FFC9" opacity="0.52">ヨ</text><text x="0" y="15" fill="#00FF41" opacity="0.46">L</text><text x="0" y="30" fill="#00FF41" opacity="0.40">ヌ</text><text x="0" y="45" fill="#00FF41" opacity="0.35">F</text><text x="0" y="60" fill="#00FF41" opacity="0.29">B</text><text x="0" y="75" fill="#00FF41" opacity="0.23">1</text><text x="0" y="90" fill="#00FF41" opacity="0.17">R</text><text x="0" y="105" fill="#00FF41" opacity="0.12">ウ</text><text x="0" y="120" fill="#00FF41" opacity="0.06">W</text></g>
  <animateTransform attributeName="transform" type="translate"
    from="451.9 -90.0" to="451.9 210.0"
    dur="5.76s" begin="-3.80s" repeatCount="indefinite" additive="sum"/>
</g>

<g transform="translate(472.4,-12.2)">
  <g><text x="0" y="0" fill="#C9FFC9" opacity="0.99">J</text><text x="0" y="15" fill="#00FF41" opacity="0.89">ケ</text><text x="0" y="30" fill="#00FF41" opacity="0.79">M</text><text x="0" y="45" fill="#00FF41" opacity="0.69">ア</text><text x="0" y="60" fill="#00FF41" opacity="0.59">E</text><text x="0" y="75" fill="#00FF41" opacity="0.50">9</text><text x="0" y="90" fill="#00FF41" opacity="0.40">C</text><text x="0" y="105" fill="#00FF41" opacity="0.30">ム</text><text x="0" y="120" fill="#00FF41" opacity="0.20">ク</text><text x="0" y="135" fill="#00FF41" opacity="0.10">オ</text></g>
  <animateTransform attributeName="transform" type="translate"
    from="472.4 -90.0" to="472.4 210.0"
    dur="4.00s" begin="-2.35s" repeatCount="indefinite" additive="sum"/>
</g>

<g transform="translate(489.5,-43.7)">
  <g><text x="0" y="0" fill="#C9FFC9" opacity="0.83">モ</text><text x="0" y="15" fill="#00FF41" opacity="0.72">ニ</text><text x="0" y="30" fill="#00FF41" opacity="0.60">テ</text><text x="0" y="45" fill="#00FF41" opacity="0.48">5</text><text x="0" y="60" fill="#00FF41" opacity="0.36">ケ</text><text x="0" y="75" fill="#00FF41" opacity="0.24">3</text><text x="0" y="90" fill="#00FF41" opacity="0.12">T</text></g>
  <animateTransform attributeName="transform" type="translate"
    from="489.5 -90.0" to="489.5 210.0"
    dur="5.91s" begin="-1.56s" repeatCount="indefinite" additive="sum"/>
</g>

<g transform="translate(509.8,-79.0)">
  <g><text x="0" y="0" fill="#C9FFC9" opacity="0.57">リ</text><text x="0" y="15" fill="#00FF41" opacity="0.52">タ</text><text x="0" y="30" fill="#00FF41" opacity="0.47">7</text><text x="0" y="45" fill="#00FF41" opacity="0.42">ウ</text><text x="0" y="60" fill="#00FF41" opacity="0.36">U</text><text x="0" y="75" fill="#00FF41" opacity="0.31">5</text><text x="0" y="90" fill="#00FF41" opacity="0.26">ヒ</text><text x="0" y="105" fill="#00FF41" opacity="0.21">W</text><text x="0" y="120" fill="#00FF41" opacity="0.16">ハ</text><text x="0" y="135" fill="#00FF41" opacity="0.10">ヲ</text><text x="0" y="150" fill="#00FF41" opacity="0.05">リ</text></g>
  <animateTransform attributeName="transform" type="translate"
    from="509.8 -90.0" to="509.8 210.0"
    dur="2.92s" begin="-5.59s" repeatCount="indefinite" additive="sum"/>
</g>

<g transform="translate(528.6,-9.4)">
  <g><text x="0" y="0" fill="#C9FFC9" opacity="0.77">ワ</text><text x="0" y="15" fill="#00FF41" opacity="0.66">ウ</text><text x="0" y="30" fill="#00FF41" opacity="0.55">ヘ</text><text x="0" y="45" fill="#00FF41" opacity="0.44">0</text><text x="0" y="60" fill="#00FF41" opacity="0.33">Z</text><text x="0" y="75" fill="#00FF41" opacity="0.22">ト</text><text x="0" y="90" fill="#00FF41" opacity="0.11">ケ</text></g>
  <animateTransform attributeName="transform" type="translate"
    from="528.6 -90.0" to="528.6 210.0"
    dur="4.01s" begin="-0.53s" repeatCount="indefinite" additive="sum"/>
</g>

<g transform="translate(551.1,-11.9)">
  <g><text x="0" y="0" fill="#C9FFC9" opacity="0.98">ソ</text><text x="0" y="15" fill="#00FF41" opacity="0.82">2</text><text x="0" y="30" fill="#00FF41" opacity="0.66">サ</text><text x="0" y="45" fill="#00FF41" opacity="0.49">サ</text><text x="0" y="60" fill="#00FF41" opacity="0.33">オ</text><text x="0" y="75" fill="#00FF41" opacity="0.16">P</text></g>
  <animateTransform attributeName="transform" type="translate"
    from="551.1 -90.0" to="551.1 210.0"
    dur="4.83s" begin="-5.33s" repeatCount="indefinite" additive="sum"/>
</g>

<g transform="translate(572.7,-68.3)">
  <g><text x="0" y="0" fill="#C9FFC9" opacity="0.71">9</text><text x="0" y="15" fill="#00FF41" opacity="0.64">ア</text><text x="0" y="30" fill="#00FF41" opacity="0.57">ハ</text><text x="0" y="45" fill="#00FF41" opacity="0.50">コ</text><text x="0" y="60" fill="#00FF41" opacity="0.43">チ</text><text x="0" y="75" fill="#00FF41" opacity="0.36">ヌ</text><text x="0" y="90" fill="#00FF41" opacity="0.28">フ</text><text x="0" y="105" fill="#00FF41" opacity="0.21">Q</text><text x="0" y="120" fill="#00FF41" opacity="0.14">ク</text><text x="0" y="135" fill="#00FF41" opacity="0.07">テ</text></g>
  <animateTransform attributeName="transform" type="translate"
    from="572.7 -90.0" to="572.7 210.0"
    dur="2.62s" begin="-4.41s" repeatCount="indefinite" additive="sum"/>
</g>

<g transform="translate(588.6,-143.2)">
  <g><text x="0" y="0" fill="#C9FFC9" opacity="0.88">H</text><text x="0" y="15" fill="#00FF41" opacity="0.70">カ</text><text x="0" y="30" fill="#00FF41" opacity="0.53">9</text><text x="0" y="45" fill="#00FF41" opacity="0.35">ウ</text><text x="0" y="60" fill="#00FF41" opacity="0.18">ツ</text></g>
  <animateTransform attributeName="transform" type="translate"
    from="588.6 -90.0" to="588.6 210.0"
    dur="4.60s" begin="-3.68s" repeatCount="indefinite" additive="sum"/>
</g>

<g transform="translate(607.9,-73.1)">
  <g><text x="0" y="0" fill="#C9FFC9" opacity="0.95">H</text><text x="0" y="15" fill="#00FF41" opacity="0.76">イ</text><text x="0" y="30" fill="#00FF41" opacity="0.57">R</text><text x="0" y="45" fill="#00FF41" opacity="0.38">サ</text><text x="0" y="60" fill="#00FF41" opacity="0.19">M</text></g>
  <animateTransform attributeName="transform" type="translate"
    from="607.9 -90.0" to="607.9 210.0"
    dur="3.74s" begin="-2.50s" repeatCount="indefinite" additive="sum"/>
</g>

<g transform="translate(629.0,-125.0)">
  <g><text x="0" y="0" fill="#C9FFC9" opacity="0.65">ソ</text><text x="0" y="15" fill="#00FF41" opacity="0.59">テ</text><text x="0" y="30" fill="#00FF41" opacity="0.52">ナ</text><text x="0" y="45" fill="#00FF41" opacity="0.46">ツ</text><text x="0" y="60" fill="#00FF41" opacity="0.39">2</text><text x="0" y="75" fill="#00FF41" opacity="0.33">ソ</text><text x="0" y="90" fill="#00FF41" opacity="0.26">6</text><text x="0" y="105" fill="#00FF41" opacity="0.20">I</text><text x="0" y="120" fill="#00FF41" opacity="0.13">S</text><text x="0" y="135" fill="#00FF41" opacity="0.07">ハ</text></g>
  <animateTransform attributeName="transform" type="translate"
    from="629.0 -90.0" to="629.0 210.0"
    dur="5.01s" begin="-5.79s" repeatCount="indefinite" additive="sum"/>
</g>

<g transform="translate(651.9,-59.9)">
  <g><text x="0" y="0" fill="#C9FFC9" opacity="0.95">ヒ</text><text x="0" y="15" fill="#00FF41" opacity="0.84">ケ</text><text x="0" y="30" fill="#00FF41" opacity="0.74">モ</text><text x="0" y="45" fill="#00FF41" opacity="0.63">4</text><text x="0" y="60" fill="#00FF41" opacity="0.53">ス</text><text x="0" y="75" fill="#00FF41" opacity="0.42">2</text><text x="0" y="90" fill="#00FF41" opacity="0.32">チ</text><text x="0" y="105" fill="#00FF41" opacity="0.21">ソ</text><text x="0" y="120" fill="#00FF41" opacity="0.11">T</text></g>
  <animateTransform attributeName="transform" type="translate"
    from="651.9 -90.0" to="651.9 210.0"
    dur="4.87s" begin="-2.12s" repeatCount="indefinite" additive="sum"/>
</g>

<g transform="translate(669.6,-2.5)">
  <g><text x="0" y="0" fill="#C9FFC9" opacity="0.88">ス</text><text x="0" y="15" fill="#00FF41" opacity="0.71">ミ</text><text x="0" y="30" fill="#00FF41" opacity="0.53">テ</text><text x="0" y="45" fill="#00FF41" opacity="0.35">B</text><text x="0" y="60" fill="#00FF41" opacity="0.18">8</text></g>
  <animateTransform attributeName="transform" type="translate"
    from="669.6 -90.0" to="669.6 210.0"
    dur="3.22s" begin="-3.00s" repeatCount="indefinite" additive="sum"/>
</g>

<g transform="translate(692.3,-31.0)">
  <g><text x="0" y="0" fill="#C9FFC9" opacity="0.67">0</text><text x="0" y="15" fill="#00FF41" opacity="0.58">3</text><text x="0" y="30" fill="#00FF41" opacity="0.50">ス</text><text x="0" y="45" fill="#00FF41" opacity="0.42">チ</text><text x="0" y="60" fill="#00FF41" opacity="0.33">ト</text><text x="0" y="75" fill="#00FF41" opacity="0.25">ケ</text><text x="0" y="90" fill="#00FF41" opacity="0.17">Z</text><text x="0" y="105" fill="#00FF41" opacity="0.08">B</text></g>
  <animateTransform attributeName="transform" type="translate"
    from="692.3 -90.0" to="692.3 210.0"
    dur="3.26s" begin="-2.65s" repeatCount="indefinite" additive="sum"/>
</g>

<g transform="translate(710.8,-125.5)">
  <g><text x="0" y="0" fill="#C9FFC9" opacity="0.94">ヲ</text><text x="0" y="15" fill="#00FF41" opacity="0.86">ヒ</text><text x="0" y="30" fill="#00FF41" opacity="0.77">N</text><text x="0" y="45" fill="#00FF41" opacity="0.69">ワ</text><text x="0" y="60" fill="#00FF41" opacity="0.60">ラ</text><text x="0" y="75" fill="#00FF41" opacity="0.52">シ</text><text x="0" y="90" fill="#00FF41" opacity="0.43">I</text><text x="0" y="105" fill="#00FF41" opacity="0.34">P</text><text x="0" y="120" fill="#00FF41" opacity="0.26">セ</text><text x="0" y="135" fill="#00FF41" opacity="0.17">F</text><text x="0" y="150" fill="#00FF41" opacity="0.09">W</text></g>
  <animateTransform attributeName="transform" type="translate"
    from="710.8 -90.0" to="710.8 210.0"
    dur="2.62s" begin="-1.10s" repeatCount="indefinite" additive="sum"/>
</g>

<g transform="translate(731.0,-65.2)">
  <g><text x="0" y="0" fill="#C9FFC9" opacity="0.82">ケ</text><text x="0" y="15" fill="#00FF41" opacity="0.72">エ</text><text x="0" y="30" fill="#00FF41" opacity="0.62">オ</text><text x="0" y="45" fill="#00FF41" opacity="0.52">ロ</text><text x="0" y="60" fill="#00FF41" opacity="0.41">テ</text><text x="0" y="75" fill="#00FF41" opacity="0.31">セ</text><text x="0" y="90" fill="#00FF41" opacity="0.21">8</text><text x="0" y="105" fill="#00FF41" opacity="0.10">ロ</text></g>
  <animateTransform attributeName="transform" type="translate"
    from="731.0 -90.0" to="731.0 210.0"
    dur="4.75s" begin="-5.90s" repeatCount="indefinite" additive="sum"/>
</g>

<g transform="translate(752.7,-88.6)">
  <g><text x="0" y="0" fill="#C9FFC9" opacity="0.56">ヤ</text><text x="0" y="15" fill="#00FF41" opacity="0.51">U</text><text x="0" y="30" fill="#00FF41" opacity="0.45">X</text><text x="0" y="45" fill="#00FF41" opacity="0.39">4</text><text x="0" y="60" fill="#00FF41" opacity="0.34">9</text><text x="0" y="75" fill="#00FF41" opacity="0.28">7</text><text x="0" y="90" fill="#00FF41" opacity="0.23">0</text><text x="0" y="105" fill="#00FF41" opacity="0.17">7</text><text x="0" y="120" fill="#00FF41" opacity="0.11">8</text><text x="0" y="135" fill="#00FF41" opacity="0.06">T</text></g>
  <animateTransform attributeName="transform" type="translate"
    from="752.7 -90.0" to="752.7 210.0"
    dur="5.82s" begin="-1.80s" repeatCount="indefinite" additive="sum"/>
</g>

<g transform="translate(769.4,-41.2)">
  <g><text x="0" y="0" fill="#C9FFC9" opacity="0.86">イ</text><text x="0" y="15" fill="#00FF41" opacity="0.78">ワ</text><text x="0" y="30" fill="#00FF41" opacity="0.69">ラ</text><text x="0" y="45" fill="#00FF41" opacity="0.60">Y</text><text x="0" y="60" fill="#00FF41" opacity="0.52">サ</text><text x="0" y="75" fill="#00FF41" opacity="0.43">Q</text><text x="0" y="90" fill="#00FF41" opacity="0.35">P</text><text x="0" y="105" fill="#00FF41" opacity="0.26">ヲ</text><text x="0" y="120" fill="#00FF41" opacity="0.17">キ</text><text x="0" y="135" fill="#00FF41" opacity="0.09">G</text></g>
  <animateTransform attributeName="transform" type="translate"
    from="769.4 -90.0" to="769.4 210.0"
    dur="3.12s" begin="-4.39s" repeatCount="indefinite" additive="sum"/>
</g>

<g transform="translate(791.0,-147.1)">
  <g><text x="0" y="0" fill="#C9FFC9" opacity="0.81">A</text><text x="0" y="15" fill="#00FF41" opacity="0.73">I</text><text x="0" y="30" fill="#00FF41" opacity="0.66">ミ</text><text x="0" y="45" fill="#00FF41" opacity="0.59">5</text><text x="0" y="60" fill="#00FF41" opacity="0.51">シ</text><text x="0" y="75" fill="#00FF41" opacity="0.44">8</text><text x="0" y="90" fill="#00FF41" opacity="0.37">V</text><text x="0" y="105" fill="#00FF41" opacity="0.29">メ</text><text x="0" y="120" fill="#00FF41" opacity="0.22">ム</text><text x="0" y="135" fill="#00FF41" opacity="0.15">ハ</text><text x="0" y="150" fill="#00FF41" opacity="0.07">フ</text></g>
  <animateTransform attributeName="transform" type="translate"
    from="791.0 -90.0" to="791.0 210.0"
    dur="2.78s" begin="-4.94s" repeatCount="indefinite" additive="sum"/>
</g>

<g transform="translate(811.1,-40.4)">
  <g><text x="0" y="0" fill="#C9FFC9" opacity="0.87">G</text><text x="0" y="15" fill="#00FF41" opacity="0.78">ワ</text><text x="0" y="30" fill="#00FF41" opacity="0.68">B</text><text x="0" y="45" fill="#00FF41" opacity="0.58">X</text><text x="0" y="60" fill="#00FF41" opacity="0.48">ヘ</text><text x="0" y="75" fill="#00FF41" opacity="0.39">3</text><text x="0" y="90" fill="#00FF41" opacity="0.29">I</text><text x="0" y="105" fill="#00FF41" opacity="0.19">キ</text><text x="0" y="120" fill="#00FF41" opacity="0.10">C</text></g>
  <animateTransform attributeName="transform" type="translate"
    from="811.1 -90.0" to="811.1 210.0"
    dur="5.94s" begin="-5.11s" repeatCount="indefinite" additive="sum"/>
</g>

<g transform="translate(832.4,-140.7)">
  <g><text x="0" y="0" fill="#C9FFC9" opacity="0.56">ソ</text><text x="0" y="15" fill="#00FF41" opacity="0.50">J</text><text x="0" y="30" fill="#00FF41" opacity="0.43">ユ</text><text x="0" y="45" fill="#00FF41" opacity="0.37">チ</text><text x="0" y="60" fill="#00FF41" opacity="0.31">ン</text><text x="0" y="75" fill="#00FF41" opacity="0.25">ニ</text><text x="0" y="90" fill="#00FF41" opacity="0.19">ス</text><text x="0" y="105" fill="#00FF41" opacity="0.12">A</text><text x="0" y="120" fill="#00FF41" opacity="0.06">ロ</text></g>
  <animateTransform attributeName="transform" type="translate"
    from="832.4 -90.0" to="832.4 210.0"
    dur="5.27s" begin="-5.30s" repeatCount="indefinite" additive="sum"/>
</g>

<g transform="translate(848.8,-40.0)">
  <g><text x="0" y="0" fill="#C9FFC9" opacity="0.81">0</text><text x="0" y="15" fill="#00FF41" opacity="0.74">E</text><text x="0" y="30" fill="#00FF41" opacity="0.66">4</text><text x="0" y="45" fill="#00FF41" opacity="0.59">4</text><text x="0" y="60" fill="#00FF41" opacity="0.52">ユ</text><text x="0" y="75" fill="#00FF41" opacity="0.44">S</text><text x="0" y="90" fill="#00FF41" opacity="0.37">オ</text><text x="0" y="105" fill="#00FF41" opacity="0.29">ナ</text><text x="0" y="120" fill="#00FF41" opacity="0.22">9</text><text x="0" y="135" fill="#00FF41" opacity="0.15">オ</text><text x="0" y="150" fill="#00FF41" opacity="0.07">M</text></g>
  <animateTransform attributeName="transform" type="translate"
    from="848.8 -90.0" to="848.8 210.0"
    dur="5.12s" begin="-3.26s" repeatCount="indefinite" additive="sum"/>
</g>

<g transform="translate(870.2,-148.0)">
  <g><text x="0" y="0" fill="#C9FFC9" opacity="0.68">9</text><text x="0" y="15" fill="#00FF41" opacity="0.61">K</text><text x="0" y="30" fill="#00FF41" opacity="0.54">ホ</text><text x="0" y="45" fill="#00FF41" opacity="0.48">X</text><text x="0" y="60" fill="#00FF41" opacity="0.41">テ</text><text x="0" y="75" fill="#00FF41" opacity="0.34">ノ</text><text x="0" y="90" fill="#00FF41" opacity="0.27">オ</text><text x="0" y="105" fill="#00FF41" opacity="0.20">ヤ</text><text x="0" y="120" fill="#00FF41" opacity="0.14">1</text><text x="0" y="135" fill="#00FF41" opacity="0.07">ノ</text></g>
  <animateTransform attributeName="transform" type="translate"
    from="870.2 -90.0" to="870.2 210.0"
    dur="4.78s" begin="-5.24s" repeatCount="indefinite" additive="sum"/>
</g>

<g transform="translate(887.7,-29.0)">
  <g><text x="0" y="0" fill="#C9FFC9" opacity="0.63">U</text><text x="0" y="15" fill="#00FF41" opacity="0.55">P</text><text x="0" y="30" fill="#00FF41" opacity="0.47">ヌ</text><text x="0" y="45" fill="#00FF41" opacity="0.39">6</text><text x="0" y="60" fill="#00FF41" opacity="0.31">J</text><text x="0" y="75" fill="#00FF41" opacity="0.24">H</text><text x="0" y="90" fill="#00FF41" opacity="0.16">ハ</text><text x="0" y="105" fill="#00FF41" opacity="0.08">ソ</text></g>
  <animateTransform attributeName="transform" type="translate"
    from="887.7 -90.0" to="887.7 210.0"
    dur="4.56s" begin="-1.45s" repeatCount="indefinite" additive="sum"/>
</g>
</g>
<rect x="0" y="45.0" width="900" height="60" fill="#000000" opacity="0.4"/>

<text x="450.0" y="82.0" text-anchor="middle" font-family="Consolas, Menlo, monospace"
  font-size="18" font-style="italic" fill="#39FF6A">"Code is the closest thing we have to magic — write it with intent."</text>

</svg>